<svg height="453pt" viewBox="0 -1 453.98988 453" width="453pt" xmlns="http://www.w3.org/2000/svg"><path d="m286.660156 240.46875c0 23.238281-14.507812 43.160156-35.007812 52.226562v8.640626h-49.289063v-8.859376c-20.792969-8.878906-35.089843-28.890624-35-52.210937.097657-29.878906 24.859375-55.1875 55.898438-57.007813 34.640625-2.03125 63.398437 24.371094 63.398437 57.210938zm0 0" fill="#fedb41"/><path d="m202.363281 301.335938h49.289063v33.542968h-49.289063zm0 0" fill="#00acea"/><path d="m227.011719 165.378906c-4.417969 0-8-3.582031-8-8v-29.300781c0-4.417969 3.582031-8 8-8s8 3.582031 8 8v29.300781c0 4.417969-3.582031 8-8 8zm0 0" fill="#00efd1"/><path d="m143.582031 245.535156h-30.488281c-4.421875 0-8-3.578125-8-8 0-4.417968 3.578125-8 8-8h30.488281c4.417969 0 8 3.582032 8 8 0 4.421875-3.582031 8-8 8zm0 0" fill="#00efd1"/><path d="m340.933594 245.535156h-30.492188c-4.417968 0-8-3.578125-8-8 0-4.417968 3.582032-8 8-8h30.492188c4.417968 0 8 3.582032 8 8 0 4.421875-3.582032 8-8 8zm0 0" fill="#00efd1"/><path d="m168.21875 188.816406c-2.050781.003906-4.023438-.785156-5.507812-2.199218l-21.710938-20.628907c-3.203125-3.042969-3.332031-8.109375-.289062-11.3125 3.042968-3.203125 8.109374-3.332031 11.3125-.289062l21.710937 20.628906c2.371094 2.257813 3.132813 5.730469 1.917969 8.769531-1.214844 3.039063-4.160156 5.03125-7.433594 5.03125zm0 0" fill="#00efd1"/><path d="m285.804688 188.816406c-3.273438 0-6.21875-1.992187-7.433594-5.03125-1.214844-3.039062-.453125-6.511718 1.917968-8.769531l21.710938-20.628906c3.203125-3.042969 8.269531-2.914063 11.3125.289062s2.914062 8.269531-.289062 11.3125l-21.710938 20.628907c-1.484375 1.414062-3.457031 2.203124-5.507812 2.199218zm0 0" fill="#00efd1"/><g fill="#f4b844"><path d="m19.351562 100.867188c-.953124-10.804688-.320312-21.691407 1.875-32.316407 2.929688-13.210937 8.671876-24.164062 17.074219-32.558593 11.78125-11.789063 28.355469-18.253907 49.210938-19.214844 10.113281-.386719 20.242187.304687 30.210937 2.054687l2.769532-15.757812c-11.105469-1.949219-22.386719-2.714844-33.652344-2.28125-25.027344 1.148437-45.164063 9.183593-59.851563 23.882812-10.601562 10.59375-17.800781 24.210938-21.398437 40.476563-.011719.035156-.019532.070312-.023438.097656-2.519531 12.167969-3.246094 24.640625-2.15625 37.019531zm0 0"/><path d="m53.007812 201.109375c-4.824218-8.789063-9.226562-17.625-13.085937-26.261719l-14.609375 6.53125c4.035156 9.027344 8.632812 18.257813 13.664062 27.425782zm0 0"/><path d="m7.886719 130.644531c1.660156 7.15625 3.757812 14.574219 6.234375 22.050781l15.191406-5.035156c-2.324219-7.011718-4.285156-13.949218-5.835938-20.628906zm0 0"/><path d="m60.949219 244.664062c5 7.375 10.363281 14.832032 15.9375 22.15625.640625.84375 1.285156 1.6875 1.933593 2.53125l12.679688-9.757812c-.625-.8125-1.246094-1.625-1.875-2.453125-5.40625-7.097656-10.597656-14.320313-15.429688-21.453125zm0 0"/><path d="m124.683594 298.601562c-4.039063-4.316406-7.984375-8.671874-11.734375-12.957031-.925781-1.054687-1.847657-2.113281-2.765625-3.171875l-12.097656 10.46875c.941406 1.089844 1.890624 2.179688 2.835937 3.253906 3.855469 4.40625 7.921875 8.894532 12.085937 13.34375 1.84375 1.96875 3.699219 3.921876 5.585938 5.878907l11.519531-11.101563c-1.835937-1.902344-3.644531-3.808594-5.429687-5.714844zm0 0"/><path d="m427.617188 268.082031-14.652344 6.429688c9.113281 20.769531 15.214844 40.558593 18.136718 58.816406 5.472657 34.253906-.535156 61.261719-17.375 78.101563-8.339843 8.332031-19.183593 14.050781-32.230468 16.996093-10.558594 2.375-22.546875 2.945313-35.632813 1.691407-3.285156-.320313-6.613281-.746094-9.894531-1.269532l-2.515625 15.800782c3.601563.574218 7.257813 1.042968 10.878906 1.394531 5.003907.476562 9.878907.71875 14.625.71875 8.757813.050781 17.496094-.863281 26.054688-2.730469 16.046875-3.625 29.511719-10.785156 40.023437-21.285156 20.621094-20.621094 28.179688-52.414063 21.863282-91.941406-3.132813-19.605469-9.621094-40.707032-19.28125-62.722657zm0 0"/><path d="m409.617188 232.46875-13.890626 7.9375c3.644532 6.378906 7.128907 12.910156 10.363282 19.410156l14.320312-7.121094c-3.359375-6.773437-7-13.582031-10.792968-20.226562zm0 0"/><path d="m344.15625 167.609375 12.183594-10.371094c-6.554688-7.699219-13.414063-15.308593-20.390625-22.617187l-11.574219 11.050781c6.769531 7.085937 13.425781 14.46875 19.78125 21.9375zm0 0"/><path d="m392.605469 205.011719c-5.492188-8.132813-11.277344-16.226563-17.195313-24.035157l-12.75 9.664063c5.738282 7.574219 11.351563 15.421875 16.679688 23.320313zm0 0"/><path d="m315.511719 395.257812c-.761719-2.78125-2.953125-4.933593-5.746094-5.644531-2.792969-.707031-5.75.136719-7.742187 2.214844-1.996094 2.078125-2.71875 5.066406-1.894532 7.828125l6.34375 22.164062c-18.121094-5.773437-35.671875-13.199218-52.433594-22.183593-23.480468-12.546875-45.808593-27.136719-66.726562-43.601563-15.519531-12.152344-30.367188-25.140625-44.46875-38.914062l-11.183594 11.449218c14.519532 14.171876 29.796875 27.542969 45.773438 40.050782 21.660156 17.050781 44.785156 32.160156 69.097656 45.148437 13.917969 7.410157 28.328125 13.847657 43.132812 19.273438l-13.085937 3.742187c-2.777344.761719-4.933594 2.957032-5.640625 5.746094-.710938 2.792969.136719 5.75 2.214844 7.742188 2.078125 1.996093 5.066406 2.71875 7.828125 1.894531l39.046875-11.171875c.046875-.011719.09375-.023438.140625-.039063l.230469-.070312c4.171874-1.273438 6.550781-5.65625 5.351562-9.851563zm0 0"/><path d="m68.085938 431.265625c-13.207032-2.929687-24.164063-8.671875-32.566407-17.074219-11.785156-11.785156-18.246093-28.363281-19.207031-49.214844-.382812-10.109374.304688-20.234374 2.058594-30.199218l-15.757813-2.773438c-1.953125 11.101563-2.714843 22.382813-2.285156 33.648438 1.148437 25.019531 9.179687 45.15625 23.875 59.851562 10.605469 10.605469 24.226563 17.800782 40.480469 21.398438.035156.007812.070312.019531.101562.023437 8.496094 1.761719 17.152344 2.648438 25.828125 2.648438 3.726563 0 7.457031-.164063 11.183594-.492188l-1.398437-15.9375c-10.804688.945313-21.691407.3125-32.3125-1.878906zm0 0"/><path d="m126.566406 429.011719 3.609375 15.589843c7.152344-1.65625 14.574219-3.753906 22.054688-6.234374l-5.039063-15.191407c-7.011718 2.328125-13.949218 4.292969-20.625 5.835938zm0 0"/><path d="m174.382812 412.566406 6.527344 14.609375c9.035156-4.035156 18.261719-8.632812 27.433594-13.664062l-7.699219-14.027344c-8.789062 4.820313-17.625 9.222656-26.261719 13.082031zm0 0"/><path d="m298.136719 327.804688c-4.308594 4.03125-8.660157 7.976562-12.957031 11.734374-1.054688.925782-2.109376 1.847657-3.167969 2.761719l10.460937 12.105469c1.089844-.941406 2.179688-1.894531 3.257813-2.839844 4.414062-3.863281 8.902343-7.929687 13.34375-12.085937 1.964843-1.84375 3.921875-3.699219 5.878906-5.582031l-11.101563-11.519532c-1.90625 1.832032-3.808593 3.640625-5.714843 5.425782zm0 0"/><path d="m256.675781 362.863281c-6.78125 5.164063-13.71875 10.164063-20.621093 14.859375l9 13.230469c7.136718-4.855469 14.308593-10.023437 21.308593-15.355469.839844-.640625 1.683594-1.28125 2.523438-1.929687l-9.753907-12.683594c-.816406.628906-1.632812 1.25-2.457031 1.878906zm0 0"/><path d="m332.863281 21.386719c34.253907-5.472657 61.261719.535156 78.101563 17.375 8.328125 8.339843 14.046875 19.183593 17 32.230469 2.371094 10.558593 2.941406 22.550781 1.691406 35.632812-.316406 3.277344-.746094 6.605469-1.265625 9.898438l15.796875 2.515624c.578125-3.609374 1.042969-7.265624 1.394531-10.878906 1.414063-14.777344.738281-28.460937-2.007812-40.683594-3.625-16.042968-10.785157-29.507812-21.289063-40.023437-20.625-20.621094-52.417968-28.175781-91.945312-21.867187-19.601563 3.136718-40.703125 9.625-62.722656 19.285156l6.429687 14.652344c20.769531-9.113282 40.566406-15.214844 58.816406-18.136719zm0 0"/><path d="m236.011719 51.476562c-10.5-6.667968-21.234375-12.910156-32.210938-18.726562-9.621093-5.089844-19.496093-9.6875-29.582031-13.773438l12.503906-2.671874c4.285156-.957032 7-5.1875 6.082032-9.480469-.917969-4.292969-5.125-7.046875-9.425782-6.167969l-39.949218 8.539062c-4.128907.917969-6.847657 4.867188-6.234376 9.050782.023438.171875.054688.34375.09375.515625l7.761719 36.320312c.953125 4.285157 5.183594 7 9.476563 6.082031 4.296875-.917968 7.046875-5.125 6.167968-9.425781l-4.839843-22.660156c13.898437 4.953125 27.421875 10.90625 40.460937 17.808594 23.171875 12.242187 45.230469 26.480469 65.921875 42.554687 9.816407 7.589844 19.644531 15.761719 29.210938 24.292969 5.28125 4.707031 10.652343 9.699219 15.964843 14.832031 2.230469 2.15625 4.5 4.386719 6.945313 6.816406l11.289063-11.339843c-2.5-2.484375-4.828126-4.769531-7.117188-6.984375-5.464844-5.28125-11-10.417969-16.433594-15.265625-9.84375-8.78125-19.960937-17.195313-30.058594-25-9.628906-7.476563-19.601562-14.582031-29.828124-21.304688 5.75-3.230469 11.5-6.289062 17.140624-9.085937l-7.113281-14.332032c-6.886719 3.417969-13.925781 7.183594-20.929687 11.195313zm0 0"/><path d="m134.15625 116.539062 11.050781 11.574219c7.09375-6.773437 14.472657-13.429687 21.9375-19.78125l-10.371093-12.183593c-7.695313 6.550781-15.304688 13.410156-22.617188 20.390624zm0 0"/><path d="m190.175781 89.828125c7.582031-5.742187 15.425781-11.355469 23.320313-16.679687l-8.945313-13.265626c-8.140625 5.496094-16.222656 11.273438-24.039062 17.195313zm0 0"/><path d="m442.492188 130.324219c-.578126-2.121094-2.003907-3.910157-3.941407-4.949219s-4.21875-1.234375-6.304687-.539062l-36.78125 12.242187c-2.730469.886719-4.777344 3.167969-5.363282 5.980469-.582031 2.8125.382813 5.722656 2.539063 7.625 2.152344 1.902344 5.160156 2.503906 7.878906 1.574218l21.078125-7.015624c-5.800781 18.394531-13.304687 36.207031-22.421875 53.207031-12.546875 23.476562-27.136719 45.808593-43.601562 66.726562-12.152344 15.519531-25.140625 30.367188-38.910157 44.46875l11.441407 11.183594c14.175781-14.515625 27.546875-29.796875 40.054687-45.769531 17.050782-21.664063 32.15625-44.785156 45.148438-69.101563 7.996094-15 14.847656-30.582031 20.5-46.613281l4.484375 16.46875c1.195312 4.21875 5.566406 6.691406 9.796875 5.539062 4.230468-1.152343 6.746094-5.496093 5.640625-9.738281zm0 0"/><path d="m16.613281 315.378906c.375 0 .75-.027344 1.121094-.078125.1875-.027343.375-.0625.5625-.101562l36.320313-7.761719c4.320312-.921875 7.074218-5.175781 6.152343-9.496094-.925781-4.320312-5.175781-7.074218-9.496093-6.148437l-22.652344 4.839843c4.953125-13.898437 10.902344-27.417968 17.804687-40.457031 12.242188-23.167969 26.480469-45.226562 42.554688-65.921875 7.585937-9.8125 15.757812-19.636718 24.292969-29.207031 4.707031-5.28125 9.699218-10.652344 14.832031-15.964844 2.171875-2.25 4.398437-4.519531 6.816406-6.945312l-11.339844-11.289063c-2.46875 2.480469-4.753906 4.808594-6.984375 7.117188-5.28125 5.464844-10.417968 11-15.265625 16.433594-8.785156 9.847656-17.199219 19.964843-25 30.054687-16.640625 21.421875-31.382812 44.257813-44.054687 68.242187-5.085938 9.621094-9.679688 19.496094-13.765625 29.582032l-2.671875-12.507813c-.578125-2.816406-2.621094-5.109375-5.355469-6-2.730469-.894531-5.734375-.253906-7.863281 1.679688-2.128906 1.933593-3.054688 4.859375-2.429688 7.664062l8.539063 39.949219c.820312 3.695312 4.097656 6.320312 7.882812 6.316406zm0 0"/></g></svg>